<?xml version="1.0" encoding="utf-8"?>
<!-- Generator: Adobe Illustrator 23.0.2, SVG Export Plug-In . SVG Version: 6.00 Build 0)  -->
<svg version="1.1" id="Слой_1" xmlns="http://www.w3.org/2000/svg" xmlns:xlink="http://www.w3.org/1999/xlink" x="0px" y="0px"
	 viewBox="0 0 761 686" style="enable-background:new 0 0 761 686;" xml:space="preserve">
<style type="text/css">
	.st0{fill:#FFFFFF;}
</style>
<g id="Outline">
	<path class="st0" d="M581,257.7c-12.6,0-24.4,5.9-32,16h-26c-1.5-8.9-3.9-17.7-7.1-26.2l22.6-13c20.3,8.7,43.8-0.7,52.5-21.1
		c5-11.6,4.2-24.8-2.1-35.7c-11-19.1-35.5-25.7-54.6-14.6c0,0,0,0,0,0c-10.9,6.3-18.2,17.4-19.7,29.9l-22.6,13
		c-5.8-7-12.2-13.4-19.1-19.2l13-22.5c12.5-1.5,23.5-8.8,29.9-19.7c11-19.1,4.4-43.6-14.7-54.6c-19.1-11-43.5-4.5-54.6,14.6
		c-6.3,10.9-7.1,24.1-2.1,35.7l-13,22.5c-8.5-3.2-17.3-5.5-26.2-7v-26c17.7-13.3,21.3-38.3,8-56s-38.3-21.3-56-8s-21.3,38.3-8,56
		c2.3,3,5,5.7,8,8v26c-8.9,1.5-17.7,3.8-26.2,7l-13-22.5c8.7-20.3-0.8-43.8-21.1-52.5c-11.6-4.9-24.8-4.2-35.7,2.1
		c-19.1,11-25.7,35.5-14.6,54.6c0,0,0,0,0,0c6.3,10.9,17.4,18.2,29.9,19.7l13,22.5c-7,5.8-13.4,12.2-19.1,19.2l-22.6-13
		c-2.6-21.9-22.6-37.6-44.5-34.9c-3,0.4-5.9,1-8.7,2.1l5.4,15.1c12.5-4.5,26.2,2,30.7,14.5c0.9,2.6,1.4,5.3,1.4,8.1
		c0,2.9,1.5,5.5,4,6.9l24.7,14.3c-2.9,4.5-5.6,9.1-8,13.9l-24.7-14.3c-2.5-1.4-5.5-1.4-8,0c-11.5,6.6-26.2,2.7-32.8-8.8
		c-5.3-9.3-3.9-20.9,3.5-28.6L179,170c-15.3,15.9-14.9,41.2,1,56.6c11.6,11.1,28.7,14.3,43.5,8l22.6,13c-3.2,8.5-5.5,17.3-7.1,26.2
		h-26c-13.3-17.7-38.3-21.3-56-8c-17.7,13.3-21.3,38.3-8,56s38.3,21.3,56,8c3-2.3,5.7-5,8-8h26c1.5,8.9,3.9,17.7,7.1,26.2l-22.6,13
		c-20.3-8.7-43.8,0.7-52.5,21.1c-5,11.6-4.2,24.8,2.1,35.7c5.3,9.2,14,15.9,24.3,18.6c3.4,0.9,6.9,1.4,10.4,1.4
		c7,0,13.9-1.9,19.9-5.4c10.9-6.3,18.2-17.4,19.7-29.9l22.6-13c5.8,7,12.2,13.4,19.1,19.2l-13,22.5c-12.5,1.5-23.5,8.8-29.9,19.7
		c-11,19.1-4.5,43.6,14.7,54.6c19.1,11,43.5,4.5,54.6-14.6c6.3-10.9,7.1-24.1,2.1-35.7l13-22.5c8.5,3.2,17.3,5.5,26.2,7v26
		c-17.7,13.3-21.3,38.3-8,56c13.3,17.7,38.3,21.3,56,8s21.3-38.3,8-56c-2.3-3-5-5.7-8-8v-26c8.9-1.5,17.7-3.8,26.2-7l13,22.5
		c-8.7,20.3,0.8,43.8,21.1,52.5c11.6,4.9,24.8,4.1,35.7-2.1c19.1-11,25.7-35.5,14.6-54.6c-6.3-10.9-17.4-18.2-29.9-19.7l-13-22.5
		c15.3-12.7,27.7-28.3,36.7-46l24.7,14.3c2.5,1.4,5.5,1.4,8,0c11.5-6.6,26.2-2.7,32.8,8.8c4.3,7.4,4.3,16.6,0,24
		c-6.6,11.5-21.3,15.4-32.8,8.8c-7.4-4.3-12-12.2-12-20.8c0-2.9-1.5-5.5-4-6.9l-13.5-7.8l-8,13.9l9.8,5.6
		c2.6,21.9,22.5,37.5,44.4,35c1.9-0.2,3.8-0.6,5.7-1.1c21.3-5.7,34-27.6,28.3-49c-2.7-10.2-9.4-19-18.6-24.3
		c-10.9-6.3-24.1-7.1-35.7-2.1l-22.6-13c3.2-8.5,5.5-17.3,7.1-26.2h26c13.3,17.7,38.3,21.3,56,8c17.7-13.3,21.3-38.3,8-56
		C605.5,263.6,593.6,257.7,581,257.7z M526.2,204.7c2.5-1.4,4-4.1,4-6.9c0-8.6,4.6-16.5,12-20.8c11.6-6.5,26.2-2.3,32.7,9.2
		c6.3,11.3,2.5,25.7-8.7,32.3c-7.4,4.3-16.6,4.3-24,0c-2.5-1.4-5.5-1.4-8,0l-24.7,14.3c-2.4-4.8-5.1-9.4-8-13.9L526.2,204.7z
		 M381,73.7c13.3,0,24,10.8,24,24c0,8.6-4.6,16.5-12,20.8c-2.5,1.4-4,4.1-4,6.9V154c-2.7-0.1-13.3-0.1-16,0v-28.5
		c0-2.9-1.5-5.5-4-6.9c-11.5-6.6-15.4-21.3-8.8-32.8C364.5,78.3,372.4,73.7,381,73.7z M235.8,390.8c-2.5,1.4-4,4.1-4,6.9
		c0,8.6-4.6,16.5-12,20.8c-11.6,6.5-26.2,2.3-32.7-9.2c-6.3-11.3-2.5-25.7,8.7-32.3c7.4-4.3,16.6-4.3,24,0c2.5,1.4,5.5,1.4,8,0
		l24.7-14.3c2.4,4.8,5.1,9.4,8,13.9L235.8,390.8z M381,521.7c-13.3,0-24-10.8-24-24c0-8.6,4.6-16.5,12-20.8c2.5-1.4,4-4.1,4-6.9
		v-28.5c2.7,0.1,13.3,0.1,16,0V470c0,2.9,1.5,5.5,4,6.9c11.5,6.6,15.4,21.3,8.8,32.8C397.5,517.1,389.6,521.7,381,521.7z M581,321.7
		c-8.6,0-16.5-4.6-20.8-12c-1.4-2.5-4.1-4-6.9-4h-37.2c-4.1,0-7.5,3-7.9,7.1c-4.2,34.8-22.4,66.5-50.5,87.5
		c-3.2,2.4-4.2,6.9-2.1,10.4l18.6,32.2c1.4,2.5,4.1,4,6.9,4c8.6,0,16.5,4.6,20.8,12c6.6,11.5,2.7,26.2-8.8,32.8s-26.2,2.7-32.8-8.8
		c-4.3-7.4-4.3-16.6,0-24c1.4-2.5,1.4-5.5,0-8l-18.6-32.2c-1.4-2.6-4-4.1-6.9-4c-2.3,0.3-4.5,1-6.6,2.1
		c-31.5,12.4-66.5,11.9-97.6-1.4c-3.7-1.6-8.1-0.2-10.1,3.3l-18.6,32.2c-1.4,2.5-1.4,5.5,0,8c6.6,11.5,2.7,26.2-8.8,32.8
		c-7.4,4.3-16.6,4.3-24,0c-11.5-6.6-15.4-21.3-8.8-32.8c0,0,0,0,0,0c4.3-7.4,12.2-12,20.8-12c2.9,0,5.5-1.5,6.9-4l18.6-32.2
		c2-3.5,1.1-8-2.1-10.4c-28.1-21-46.3-52.7-50.5-87.5c-0.5-4-3.9-7.1-7.9-7.1h-37.2c-2.9,0-5.5,1.5-6.9,4
		c-6.6,11.5-21.3,15.4-32.8,8.8s-15.4-21.3-8.8-32.8s21.3-15.4,32.8-8.8c3.7,2.1,6.7,5.1,8.8,8.8c1.4,2.5,4.1,4,6.9,4h37.2
		c4.1,0,7.5-3,7.9-7.1c4.2-34.8,22.4-66.5,50.5-87.5c3.2-2.4,4.2-6.9,2.1-10.4l-18.6-32.2c-1.4-2.5-4.1-4-6.9-4
		c-8.6,0-16.5-4.6-20.8-12c-6.6-11.5-2.7-26.2,8.8-32.8s26.2-2.7,32.8,8.8c4.3,7.4,4.3,16.6,0,24c-1.4,2.5-1.4,5.5,0,8l18.6,32.2
		c2,3.5,6.4,5,10.1,3.3c32.3-13.8,68.8-13.8,101,0c3.7,1.6,8.1,0.2,10.1-3.3l18.6-32.2c1.4-2.5,1.4-5.5,0-8
		c-6.6-11.5-2.7-26.2,8.8-32.8c7.4-4.3,16.6-4.3,24,0c11.5,6.6,15.4,21.3,8.8,32.8c0,0,0,0,0,0c-4.3,7.4-12.2,12-20.8,12
		c-2.9,0-5.5,1.5-6.9,4l-18.6,32.2c-2,3.5-1.1,8,2.1,10.4c28.1,21,46.3,52.7,50.5,87.5c0.5,4,3.9,7.1,7.9,7.1h37.2
		c2.9,0,5.5-1.5,6.9-4c6.6-11.5,21.3-15.4,32.8-8.8c11.5,6.6,15.4,21.3,8.8,32.8C597.5,317.1,589.6,321.7,581,321.7z M373,249.7
		c0,22.1-17.9,40-40,40c-22.1,0-40-17.9-40-40c0-8.5,2.7-16.8,7.8-23.7l12.9,9.5c-7.8,10.7-5.5,25.7,5.2,33.5s25.7,5.5,33.5-5.2
		c7.8-10.7,5.5-25.7-5.2-33.5c-7-5.1-16.1-6.1-24-2.5l-6.6-14.6c20.2-9.1,43.8-0.1,52.9,20.1C371.8,238.5,373,244.1,373,249.7z
		 M429,209.7c-22.1,0-40,17.9-40,40s17.9,40,40,40s40-17.9,40-40C469,227.6,451.1,209.7,429,209.7z M429,273.7
		c-13.3,0-24-10.7-24-24c0-13.3,10.7-24,24-24s24,10.7,24,24C453,263,442.2,273.7,429,273.7z M333,305.7c-22.1,0-40,17.9-40,40
		s17.9,40,40,40s40-17.9,40-40C373,323.6,355.1,305.7,333,305.7z M333,369.7c-13.3,0-24-10.7-24-24s10.7-24,24-24s24,10.7,24,24
		C357,359,346.2,369.7,333,369.7z M429,305.7c-22.1,0-40,17.9-40,40s17.9,40,40,40s40-17.9,40-40C469,323.6,451.1,305.7,429,305.7z
		 M429,369.7c-13.3,0-24-10.7-24-24s10.7-24,24-24s24,10.7,24,24C453,359,442.2,369.7,429,369.7z"/>
</g>
</svg>
