<?xml version="1.0" encoding="utf-8"?>
<!-- Generator: Adobe Illustrator 23.0.2, SVG Export Plug-In . SVG Version: 6.00 Build 0)  -->
<svg version="1.1" id="Layer_1" xmlns="http://www.w3.org/2000/svg" xmlns:xlink="http://www.w3.org/1999/xlink" x="0px" y="0px"
	 viewBox="0 0 512 512" style="enable-background:new 0 0 512 512;" xml:space="preserve">
<style type="text/css">
	.st0{fill:#FFFFFF;}
</style>
<g>
	<path class="st0" d="M349.2,122.8c-2.1,0-4.2-0.4-6.2-1.3c-27.5-11.6-56.8-17.5-87-17.5s-59.5,5.9-87,17.5
		c-8.1,3.4-17.5-0.4-21-8.5s0.4-17.5,8.5-21c31.5-13.3,65-20,99.4-20s67.9,6.7,99.4,20c8.1,3.4,12,12.8,8.5,21
		C361.4,119.1,355.4,122.8,349.2,122.8L349.2,122.8z"/>
	<path class="st0" d="M305.3,166.7c-1.4,0-2.9-0.2-4.3-0.6c-14.6-4.1-29.7-6.1-45-6.1s-30.4,2.1-45,6.1c-8.5,2.4-17.3-2.6-19.7-11.1
		c-2.4-8.5,2.6-17.3,11.1-19.7c17.4-4.8,35.4-7.3,53.6-7.3s36.2,2.4,53.6,7.3c8.5,2.4,13.5,11.2,11.1,19.7
		C318.8,162.1,312.3,166.7,305.3,166.7z"/>
	<path class="st0" d="M511.2,237.1c2.8-8.4-1.7-17.4-10.1-20.2c-8.4-2.8-17.4,1.7-20.2,10.1l-5.9,17.8c-21-18.4-52.7-28.8-87.9-28.8
		c-0.1,0-0.1,0-0.2,0c-37.7,0-71.3,11.9-92.1,32.7c-3.8,3.8-7.1,7.8-9.9,12.1c-9.2-3.2-18.9-4.8-28.7-4.8c-9.8,0-19.5,1.6-28.7,4.8
		c-2.9-4.3-6.2-8.4-9.9-12.1c-20.8-20.8-54.4-32.7-92.1-32.7c-0.1,0-0.1,0-0.2,0c-35.3,0-66.9,10.5-87.9,28.8L31.2,227
		c-2.8-8.4-11.9-12.9-20.2-10.1C2.6,219.6-2,228.7,0.8,237.1l12.6,37.7C4.7,291,0,309.1,0,328c0,29.9,11.6,58,32.8,79.2
		C54.6,429.1,83.3,440,112,440c28.7,0,57.4-10.9,79.2-32.8c22-22,38.5-49.3,45.3-75.1c3.9-14.6,4.6-28.5,2.5-41.4
		c5.5-1.7,11.2-2.6,17-2.6s11.5,0.9,17,2.6c-2.2,12.9-1.4,26.8,2.5,41.4c6.8,25.8,23.4,53.2,45.3,75.1
		c21.8,21.8,50.5,32.8,79.2,32.8c28.7,0,57.4-10.9,79.2-32.8c21.2-21.2,32.8-49.3,32.8-79.2c0-18.9-4.6-37.1-13.4-53.2L511.2,237.1z
		 M205.6,323.9c-5.4,20.5-18.9,42.6-37,60.7c-31.2,31.2-81.9,31.2-113.1,0C40.3,369.5,32,349.4,32,328s8.3-41.5,23.4-56.6
		c14.7-14.7,40.7-23.5,69.6-23.5h0.1c28.9,0,54.8,8.7,69.5,23.4C207.7,284.4,211.4,302,205.6,323.9L205.6,323.9z M456.6,384.6
		c-31.2,31.2-81.9,31.2-113.1,0c-18.1-18.1-31.6-40.2-37-60.7c-5.8-21.8-2.1-39.5,10.9-52.5c14.6-14.6,40.6-23.4,69.5-23.4h0.1
		c28.9,0,55,8.8,69.6,23.5c15.1,15.1,23.4,35.2,23.4,56.6S471.7,369.5,456.6,384.6L456.6,384.6z"/>
</g>
</svg>
