<?xml version="1.0" encoding="utf-8"?>
<!-- Generator: Adobe Illustrator 23.0.2, SVG Export Plug-In . SVG Version: 6.00 Build 0)  -->
<svg version="1.1" id="Layer_1" xmlns="http://www.w3.org/2000/svg" xmlns:xlink="http://www.w3.org/1999/xlink" x="0px" y="0px"
	 viewBox="0 0 924 803" style="enable-background:new 0 0 924 803;" xml:space="preserve">
<style type="text/css">
	.st0{fill:#FFFFFF;}
</style>
<g id="XMLID_3007_">
	<circle id="XMLID_3012_" class="st0" cx="313.9" cy="540.8" r="17.6"/>
	<path id="XMLID_3116_" class="st0" d="M313.9,588.5c-20.5,0-37.1,16.7-37.1,37.1v21.8c23.6,8.2,49.9,8.5,74.3,0v-21.8
		C351.1,605.2,334.4,588.5,313.9,588.5z"/>
	<path id="XMLID_3117_" class="st0" d="M600.1,588.5c-20.5,0-37.1,16.7-37.1,37.1v21.8c23.6,8.2,49.9,8.5,74.3,0v-21.8
		C637.2,605.2,620.6,588.5,600.1,588.5z"/>
	<path id="XMLID_3120_" class="st0" d="M679.9,461c-39.6-39.6-101.4-43.6-145.5-12.1l-52.2-84.1c4-0.9,8-2.1,11.9-3.4v-21.8
		c0-20.5-16.7-37.1-37.1-37.1c-20.5,0-37.1,16.7-37.1,37.1v21.8c3.9,1.3,7.8,2.5,11.9,3.4l-52.2,84.1
		c-44.1-31.5-105.9-27.5-145.5,12.1c-48.7,48.7-42.8,129.5,12.6,170.6v-5.9c0-23.1,11.7-43.6,29.6-55.7c-6.3-8.1-10-18.2-10-29.2
		c0-26.3,21.4-47.7,47.7-47.7s47.7,21.4,47.7,47.7c0,11-3.7,21.1-10,29.2c17.8,12.1,29.6,32.6,29.6,55.7v5.9
		c46.3-34.4,58.2-96.6,31.9-144.9H501c-26.3,48.3-14.4,110.5,31.9,144.9v-5.9c0-23.1,11.7-43.6,29.6-55.7c-6.3-8.1-10-18.2-10-29.2
		c0-26.3,21.4-47.7,47.7-47.7s47.7,21.4,47.7,47.7c0,11-3.7,21.1-10,29.2c17.8,12.1,29.6,32.6,29.6,55.7v5.9
		C722.7,590.5,728.7,509.7,679.9,461L679.9,461z M503.8,456.5h-93.6l46.8-75.4L503.8,456.5z"/>
	<circle id="XMLID_3121_" class="st0" cx="600.1" cy="540.8" r="17.6"/>
	<circle id="XMLID_3122_" class="st0" cx="457" cy="254.7" r="17.6"/>
	<path id="XMLID_3123_" class="st0" d="M389.7,345.4v-5.8c0-23.1,11.7-43.6,29.6-55.7c-6.3-8.1-10-18.2-10-29.2
		c0-26.3,21.4-47.7,47.7-47.7s47.7,21.4,47.7,47.7c0,11-3.7,21.1-10,29.2c17.8,12.1,29.6,32.6,29.6,55.7v5.8
		c27.7-20.6,45.7-53.6,45.7-90.7c0-62.3-50.7-113-113-113s-113,50.7-113,113C344,291.8,362,324.8,389.7,345.4z"/>
</g>
</svg>
